# xmcd CD database file
#
# Track frame offsets:
#	150
#	15759
#	29897
#	44115
#	55954
#	68326
#	84463
#	99005
#	121260
#	133489
#	152314
#	165982
#	180454
#	204230
#	220065
#	233899
#	249323
#	262033
#	280692
#	293462
#	303565
#	313884
#
# Disc length: 4344 seconds
#
# Revision: 0
# Processed by: cddbd v1.5.2PL0 Copyright (c) Steve Scherf et al.
# Submitted via: CDex 2.08
#
DISCID=2610f616
DTITLE=Aldredo de la Fe - Homenaje a Cuba
DYEAR=2002
DGENRE=Salsa
TTITLE0=El carretero
TTITLE1=Me voy a pa la Habana
TTITLE2=Son de la loma
TTITLE3=Maria Cristina
TTITLE4=Seis lindas cubanas
TTITLE5=Guantanamera
TTITLE6=El bodeguero
TTITLE7=El que siembra su maiz
TTITLE8=Cuando sali de Cuba
TTITLE9=Yo soy el punto Cubano
TTITLE10=Bonito y sabroso
TTITLE11=Pedacito de mi vida
TTITLE12=Siboney
TTITLE13=Cao, cao mani picao
TTITLE14=La mujer de Antonio
TTITLE15=Corazon de melon
TTITLE16=Brucamanigua
TTITLE17=Lagrimas negras
TTITLE18=El manicero
TTITLE19=Santa Barbara
TTITLE20=Tumb la Cana
TTITLE21=Como arrullo de palmas
EXTD=YEAR: 2002
EXTT0=
EXTT1=
EXTT2=
EXTT3=
EXTT4=
EXTT5=
EXTT6=
EXTT7=
EXTT8=
EXTT9=
EXTT10=
EXTT11=
EXTT12=
EXTT13=
EXTT14=
EXTT15=
EXTT16=
EXTT17=
EXTT18=
EXTT19=
EXTT20=
EXTT21=
PLAYORDER=
